<svg width="124" height="30" viewBox="0 0 124 30" fill="none" xmlns="http://www.w3.org/2000/svg">
<path d="M26.8755 3.7912C27.5255 3.34343 28.3628 1.30416 27.4063 0.455132C27.1033 0.18635 26.5967 0.108337 25.8898 0.227861C25.2342 0.338553 24.8571 0.561409 24.601 0.910266C24.1894 1.47109 23.8117 3.16296 24.4494 3.79149C25.0706 4.40324 26.4619 4.07588 26.8755 3.7912ZM17.6256 0.455132C17.1599 3.47708 16.6353 6.44015 16.1092 9.40175C12.7316 9.43737 9.28311 9.56838 6.02535 9.3258C6.64063 6.42838 7.08193 3.35667 7.69338 0.455132H4.05409C2.7514 7.84618 1.56617 15.3553 0.111572 22.5944H3.82682C4.40942 18.8812 4.95464 15.1298 5.72212 11.6006C8.8898 11.5226 12.6863 11.3866 15.7303 11.6765C15.1027 15.3456 14.3443 18.883 13.7591 22.5944H17.4743C18.6684 15.0941 19.9257 7.65806 21.4171 0.455132H17.6256ZM70.1681 6.82404C67.2775 5.65648 65.0047 7.6295 63.9511 9.47771C64.1902 8.65546 64.2885 7.6925 64.4822 6.82404H61.601C60.8965 12.2865 59.8584 17.4149 58.8716 22.5944H62.132C62.5889 19.5201 62.7862 15.3756 63.7998 12.4346C64.61 10.0845 66.7302 8.08228 69.7895 9.17448C69.8319 8.30749 70.0801 7.64569 70.1681 6.82404ZM71.9875 18.8795C71.6869 18.1028 71.6095 16.8211 71.6845 15.8463C71.8529 13.6557 72.6513 10.9885 73.8834 9.78093C75.5835 8.11437 78.9399 8.39022 81.6171 9.32609C81.6998 8.42378 81.8811 7.6189 81.9963 6.74838C77.6057 6.03124 73.4394 6.47754 71.2303 8.7956C69.0674 11.0648 67.6502 16.2803 68.652 19.5619C69.8248 23.4019 75.0845 23.6107 79.3426 22.1399C79.531 21.368 79.6308 20.5075 79.7974 19.7138C77.4702 20.9223 73.0217 21.5505 71.9875 18.8795ZM108.608 6.8997C105.727 5.45894 103.328 7.8765 102.391 9.3258C102.658 8.58216 102.673 7.58623 102.922 6.82375H100.041C99.2639 12.2388 98.3277 17.4943 97.2358 22.5941H100.572C100.593 20.5039 101.003 18.9578 101.33 16.9082C102.027 12.5312 103.051 7.73136 108.154 9.17419C108.323 8.43408 108.393 7.59447 108.608 6.8997ZM23.5394 6.82404C23.4511 6.8367 23.457 6.94386 23.4635 7.05132C22.7451 12.4237 21.7728 17.5426 20.7341 22.5941H23.9942C24.7776 17.1855 25.6749 11.8914 26.7995 6.82375L23.5394 6.82404ZM52.1989 6.52082C49.8432 6.70246 47.8519 7.38015 46.4368 8.87126C44.701 10.6997 43.2956 14.7426 43.7074 18.4246C44.295 23.6772 50.835 23.4885 56.0658 22.2155C56.155 21.2935 56.3781 20.5054 56.5206 19.6375C54.3659 20.4439 50.6245 21.5693 48.4077 20.1686C46.7344 19.1103 46.7247 16.4316 47.2705 14.1029C50.7861 13.9911 54.4401 14.0122 57.9608 14.1029C58.1839 12.4526 58.8231 10.6532 58.264 9.02316C57.5268 6.87115 54.8861 6.31356 52.1989 6.52082ZM55.3074 12.283H47.6494C47.8919 10.5225 49.4758 8.58746 51.9713 8.49208C54.32 8.40229 56.0016 9.35435 55.3074 12.283ZM39.8406 6.82404C37.0812 5.78748 33.7184 7.02482 32.2602 8.2018C32.2655 8.25362 32.2255 8.26068 32.1825 8.26451C32.2072 8.24361 32.2343 8.22271 32.2602 8.2018C32.26 8.19746 32.2595 8.19314 32.2588 8.18885C32.2832 7.68279 32.4613 7.3301 32.486 6.82404H29.6808C28.5117 14.6016 27.1254 22.1617 25.6626 29.6454H28.9227C29.3946 26.7309 29.7061 23.656 30.3635 20.9264C31.108 23.7973 35.9696 23.2488 38.0212 22.1396C42.2537 19.8504 45.5185 8.95663 39.8406 6.82404ZM37.2629 19.6375C35.5186 21.4848 31.2304 21.4572 30.8939 18.3484C30.7476 16.9959 31.2513 15.5778 31.501 14.1786C31.7527 12.7623 31.9343 11.4033 32.1828 10.1601C33.9009 8.06226 38.9494 7.80879 39.4617 11.2974C39.9059 14.3261 38.7072 18.1076 37.2629 19.6375ZM120.739 0.000294232C120.46 2.45024 120.086 4.80627 119.602 7.05132C111.605 4.51982 106.701 10.4039 106.789 17.6663C106.806 19.0708 107.048 20.4636 107.926 21.4572C109.44 23.1688 113.774 23.5789 115.963 22.1393C116.386 21.8608 116.819 21.3538 117.1 21.0023C117.311 20.7377 117.646 20.0444 117.707 20.244C117.591 21.0132 117.419 21.7262 117.404 22.5941H120.361C120.931 14.4194 122.693 7.43726 124 0H120.739V0.000294232H120.739ZM113.461 20.8504C111.266 20.8975 110.175 19.5392 110.124 17.2871C110.037 13.3428 111.767 8.96075 115.28 8.56773C116.916 8.38492 118.1 8.76527 119.299 9.17448C118.198 13.6051 118.596 20.7403 113.461 20.8504ZM85.3317 6.82404C85.1713 7.72489 84.9249 8.54006 84.7253 9.40175C86.6491 8.91924 92.6398 7.44021 93.2171 10.0082C93.4087 10.8614 93.0781 11.7678 92.8379 12.4346C87.421 11.9215 83.0057 12.8214 81.8441 16.6803C81.0663 19.2651 81.9312 21.8087 83.588 22.5187C86.779 23.8859 90.6603 22.3197 92.0039 20.1686C91.8643 20.9131 91.7321 21.6659 91.7769 22.5944H94.5819C94.6119 19.9078 95.0029 17.7331 95.4159 15.3155C95.768 13.2568 96.4307 11.2187 96.3259 9.40175C96.0845 5.2405 89.1907 6.71247 85.3317 6.82404ZM90.6391 19.5616C88.959 21.2063 84.2428 21.6735 84.7253 17.7419C85.1257 14.4765 88.6813 13.7826 92.5341 14.2539C92.2479 16.0403 91.9194 18.3083 90.6391 19.5616Z" fill="white"/>
</svg>
